<svg width="920" height="560" viewBox="0 0 920 560" xmlns="http://www.w3.org/2000/svg">
  <defs>
    <linearGradient id="base" x1="0%" y1="0%" x2="100%" y2="100%">
      <stop offset="0%" stop-color="#fff1d6" />
      <stop offset="100%" stop-color="#f2f6ff" />
    </linearGradient>
    <linearGradient id="ridge" x1="0%" y1="0%" x2="0%" y2="100%">
      <stop offset="0%" stop-color="#f6c370" />
      <stop offset="100%" stop-color="#f7a14b" />
    </linearGradient>
    <filter id="soft" x="-20%" y="-20%" width="140%" height="140%">
      <feDropShadow dx="0" dy="18" stdDeviation="24" flood-color="#2a1e08" flood-opacity="0.18" />
    </filter>
  </defs>
  <rect width="920" height="560" rx="52" fill="#fdf8ef" />
  <path
    d="M212 120 C270 74, 420 62, 508 98 C596 134, 670 176, 714 242 C758 308, 742 382, 702 432 C662 482, 590 508, 506 516 C422 524, 322 514, 268 466 C214 418, 206 332, 164 278 C122 224, 54 190, 52 154 C50 118, 154 166, 212 120 Z"
    fill="url(#base)"
    filter="url(#soft)"
  />
  <path
    d="M368 142 C414 126, 478 120, 528 142 C578 164, 620 212, 640 254 C660 296, 642 340, 604 372 C566 404, 508 426, 448 432 C388 438, 326 428, 290 386 C254 344, 244 270, 276 224 C308 178, 322 158, 368 142 Z"
    fill="#fff"
    opacity="0.4"
  />
  <path
    d="M600 120 C590 170, 588 240, 600 400"
    stroke="url(#ridge)"
    stroke-width="26"
    stroke-linecap="round"
    opacity="0.6"
  />
  <circle cx="460" cy="210" r="18" fill="#ffd37a" opacity="0.8" />
  <circle cx="520" cy="320" r="14" fill="#ffc7d1" opacity="0.8" />
  <circle cx="360" cy="300" r="16" fill="#c8f2dd" opacity="0.8" />
  <circle cx="420" cy="380" r="12" fill="#d8e8ff" opacity="0.8" />
  <text x="110" y="520" fill="#c4bcae" font-size="34" font-family="'Plus Jakarta Sans', sans-serif" letter-spacing="0.1em">
    DELHI NCR · CIVIC MAP
  </text>
</svg>